<svg id="Lag_2" data-name="Lag 2" xmlns="http://www.w3.org/2000/svg" viewBox="0 0 232.7 232.12"><defs><style>.cls-1{fill:#909189;}</style></defs><path class="cls-1" d="M176.13,0h-119A56.58,56.58,0,0,0,.58,56.57v119a56.59,56.59,0,0,0,56.58,56.57h119a56.57,56.57,0,0,0,56.57-56.57v-119A56.56,56.56,0,0,0,176.13,0ZM116.65,189.13a73.08,73.08,0,1,1,73.08-73.08A73.07,73.07,0,0,1,116.65,189.13ZM189.73,56.57A16.27,16.27,0,1,1,206,40.29,16.28,16.28,0,0,1,189.73,56.57Z"/><circle class="cls-1" cx="117.46" cy="115.25" r="50.27" transform="translate(-47.09 116.81) rotate(-45)"/></svg>