<svg id="Lag_2" data-name="Lag 2" xmlns="http://www.w3.org/2000/svg" viewBox="0 0 178 178"><defs><style>.cls-1{fill:#909189;}.cls-2{fill:none;stroke:#3aaa35;stroke-miterlimit:10;}</style></defs><circle class="cls-1" cx="21.32" cy="21.32" r="21.32"/><rect class="cls-1" x="3.2" y="58.98" width="36.44" height="119.02"/><path class="cls-1" d="M178,104.7V178H141.56V116.85a31.86,31.86,0,0,0,0-3.3c-.33-7.33-3-24.33-20.86-24.33-18.15,0-20.69,15-21,21.14a23.67,23.67,0,0,0,0,2.51V178H63.28V59H99.72V77.1s4.85-20.76,36-20.76A48.89,48.89,0,0,1,152.33,59C170.93,65.66,178,84.13,178,104.7Z"/><path class="cls-1" d="M99.72,110.36v2.51A23.67,23.67,0,0,1,99.72,110.36Z"/><path class="cls-2" d="M141.56,116.85v-3.3A31.86,31.86,0,0,1,141.56,116.85Z"/></svg>