<svg xmlns="http://www.w3.org/2000/svg" viewBox="0 0 108.53 81.81"><defs><style>.cls-1,.cls-3,.cls-4{fill:none;}.cls-1,.cls-2,.cls-3,.cls-4{stroke:#929289;stroke-miterlimit:10;}.cls-1{stroke-linecap:round;}.cls-1,.cls-2,.cls-3{stroke-width:2.83px;}.cls-2{fill:#231f20;}.cls-4{stroke-width:1.42px;}</style></defs><title>Artboard 2 copy 2</title><g id="Layer_13" data-name="Layer 13"><line class="cls-1" x1="64.37" y1="45.99" x2="64.37" y2="32.58"/><polyline class="cls-1" points="64.37 60.27 64.37 65.89 64.37 65.89"/><polyline class="cls-1" points="62.37 74.01 74.27 74.01 84.18 74.01"/><polyline class="cls-1" points="64.37 26.47 76.27 26.47 81.7 26.47"/><path class="cls-1" d="M71.79,72A22.77,22.77,0,0,0,94.56,49.24h0A22.76,22.76,0,0,0,71.79,26.47"/><path class="cls-1" d="M81.7,72c11.08,0,20.06-10.2,20.06-22.77h0c0-12.58-9-22.77-20.06-22.77"/><path class="cls-2" d="M64.37,26.47v6.11c0-6-7.9-6.11-8.63-6.11Z"/><path class="cls-2" d="M64.37,65.89V72H55.74C56.51,72,64.37,71.86,64.37,65.89Z"/><line class="cls-3" x1="58.9" y1="47.99" x2="29.44" y2="47.99"/><path class="cls-3" d="M34.63,74.46H45"/><line class="cls-3" x1="66.95" y1="65.17" x2="43.65" y2="15.29"/><path class="cls-3" d="M66.84,64.93h0a.15.15,0,0,1,0,.07c.23.52,1.57,3.82.66,6.3h0c0,.14-.12.28-.18.41v0c-.69,1.37-2.19,2.39-5.15,2.39H82.87a5,5,0,0,1-2.83-1,10.17,10.17,0,0,1-1-.79c-.28-.25-.56-.51-.83-.79s-.53-.57-.79-.87-.53-.63-.78-1-.48-.63-.72-1-.51-.72-.74-1.08-.46-.69-.68-1-.49-.79-.71-1.17c-1.16-2-1.88-3.48-1.88-3.48l-.17-.36-20-42.24L50,15.65h0l-1.15-2.43-.54-1.15-1.7-3.6-3,6.82L29.44,48,17.94,74.46"/><line class="cls-4" x1="57.06" y1="22.25" x2="51.02" y2="9.48"/><line class="cls-4" x1="75.39" y1="62.26" x2="68.85" y2="48.44"/><line class="cls-3" x1="3.79" y1="74.46" x2="105.35" y2="74.46"/><line class="cls-4" x1="18.8" y1="63.32" x2="37.58" y2="19.61"/><path class="cls-4" d="M8.9,74.27c5.11,0,8.19-6.61,8.19-6.61"/><line class="cls-4" x1="38.33" y1="36.61" x2="43.96" y2="23.5"/><line class="cls-4" x1="37.04" y1="51.14" x2="51.3" y2="51.14"/><path class="cls-4" d="M28.49,59.53l-3.93,8.93c-1.3,3.25-.15,6,3.64,6"/><line class="cls-3" x1="46.58" y1="21.52" x2="49.54" y2="14.71"/><line class="cls-3" x1="48.8" y1="26.17" x2="51.76" y2="19.36"/><line class="cls-3" x1="51.08" y1="31.3" x2="54.04" y2="24.49"/><line class="cls-3" x1="53.46" y1="36.07" x2="56.42" y2="29.26"/><line class="cls-3" x1="55.77" y1="41.12" x2="58.73" y2="34.31"/><line class="cls-3" x1="58.05" y1="46.25" x2="61.13" y2="39.16"/><line class="cls-3" x1="60.52" y1="51.14" x2="63.48" y2="44.33"/><line class="cls-3" x1="62.81" y1="56.23" x2="65.87" y2="49.18"/><line class="cls-3" x1="68.22" y1="54.15" x2="65.11" y2="61.31"/><line class="cls-3" x1="67.41" y1="66.28" x2="70.54" y2="59.06"/><line class="cls-3" x1="68.61" y1="74.45" x2="73.04" y2="64.26"/><line class="cls-3" x1="75.92" y1="68.72" x2="73.43" y2="74.46"/><line class="cls-3" x1="77.42" y1="70.63" x2="75.75" y2="74.46"/><line class="cls-3" x1="79.04" y1="72.29" x2="78.1" y2="74.46"/></g></svg>