<svg id="Lag_2" data-name="Lag 2" xmlns="http://www.w3.org/2000/svg" viewBox="0 0 284.61 166.12"><defs><style>.cls-1{fill:#919289;}</style></defs><path class="cls-1" d="M95.66,100.38l43.11,56.25a5.9,5.9,0,0,1-4.69,9.49H5.9a5.9,5.9,0,0,1-5.9-5.9V5.91A5.91,5.91,0,0,1,5.9,0H76s48.81.79,48.81,52.75C124.79,52.75,125.58,94.09,95.66,100.38Z"/><path class="cls-1" d="M229.5,166.12H161.4a5.91,5.91,0,0,1-5.91-5.9V5.91A5.92,5.92,0,0,1,161.4,0h68.1s40.55-1.18,40.55,44.09c0,0,1.57,22-8.66,30.31,0,0,23.22,6.7,23.22,42.91S253.12,166.12,229.5,166.12Z"/></svg>